<svg width="178" height="29" viewBox="0 0 178 29" fill="none" xmlns="http://www.w3.org/2000/svg">
<path d="M8.79008 5.28564H12.4921V17.6373C12.4921 18.779 12.2355 19.7708 11.7223 20.6127C11.2148 21.4546 10.5085 22.1033 9.60314 22.5589C8.69782 23.0144 7.64545 23.2422 6.44604 23.2422C5.37926 23.2422 4.41051 23.0548 3.53978 22.68C2.67482 22.2994 1.98862 21.7227 1.48118 20.95C0.973737 20.1716 0.722899 19.1942 0.728665 18.0178H4.45664C4.46817 18.4849 4.56332 18.8857 4.74207 19.2201C4.9266 19.5488 5.17744 19.8025 5.49459 19.9813C5.81751 20.1543 6.19809 20.2408 6.63633 20.2408C7.09765 20.2408 7.48688 20.1428 7.80403 19.9467C8.12695 19.7449 8.37202 19.4508 8.53924 19.0644C8.70647 18.6781 8.79008 18.2024 8.79008 17.6373V5.28564ZM15.5887 23V5.28564H19.3339V13.0962H19.5675L25.9422 5.28564H30.4314L23.8577 13.2173L30.5092 23H26.0287L21.1763 15.717L19.3339 17.9659V23H15.5887Z" fill="#FC1191"/>
<path d="M32.0338 8.37355V5.28564H46.5824V8.37355H41.1591V23H37.457V8.37355H32.0338ZM50.8899 23.2508C50.0422 23.2508 49.2868 23.1038 48.6237 22.8097C47.9605 22.5099 47.4358 22.0687 47.0494 21.4863C46.6689 20.8982 46.4786 20.1658 46.4786 19.2893C46.4786 18.5512 46.6141 17.9313 46.8851 17.4297C47.1561 16.928 47.5252 16.5243 47.9922 16.2187C48.4593 15.9131 48.9898 15.6824 49.5838 15.5268C50.1835 15.3711 50.812 15.2615 51.4694 15.1981C52.2421 15.1173 52.8648 15.0424 53.3377 14.9732C53.8105 14.8982 54.1536 14.7887 54.367 14.6445C54.5803 14.5003 54.687 14.287 54.687 14.0044V13.9525C54.687 13.4047 54.514 12.9809 54.1681 12.681C53.8278 12.3812 53.3435 12.2313 52.7149 12.2313C52.0518 12.2313 51.5242 12.3783 51.132 12.6724C50.7399 12.9607 50.4804 13.324 50.3536 13.7622L46.9456 13.4855C47.1186 12.6782 47.4589 11.9804 47.9663 11.3923C48.4737 10.7983 49.1282 10.3428 49.9298 10.0256C50.737 9.7027 51.6712 9.54124 52.7322 9.54124C53.4703 9.54124 54.1767 9.62774 54.8514 9.80073C55.5318 9.97372 56.1344 10.2419 56.6591 10.6051C57.1896 10.9684 57.6077 11.4355 57.9133 12.0064C58.2189 12.5715 58.3718 13.249 58.3718 14.039V23H54.8773V21.1576H54.7735C54.5602 21.5728 54.2747 21.939 53.9172 22.2561C53.5597 22.5675 53.1301 22.8126 52.6284 22.9914C52.1267 23.1643 51.5472 23.2508 50.8899 23.2508ZM51.9451 20.7079C52.4871 20.7079 52.9658 20.6012 53.3809 20.3878C53.7961 20.1687 54.1219 19.8746 54.3583 19.5056C54.5948 19.1365 54.713 18.7185 54.713 18.2514V16.8415C54.5976 16.9165 54.4391 16.9857 54.2372 17.0491C54.0412 17.1067 53.8192 17.1615 53.5712 17.2134C53.3233 17.2596 53.0753 17.3028 52.8274 17.3432C52.5794 17.3778 52.3545 17.4095 52.1527 17.4383C51.7202 17.5017 51.3425 17.6027 51.0196 17.7411C50.6967 17.8794 50.4458 18.0669 50.2671 18.3033C50.0883 18.5339 49.999 18.8222 49.999 19.1682C49.999 19.6699 50.1806 20.0534 50.5439 20.3186C50.9129 20.5781 51.38 20.7079 51.9451 20.7079ZM67.216 28.2589C66.0223 28.2589 64.9988 28.0946 64.1454 27.7659C63.2977 27.443 62.623 27.0019 62.1213 26.4425C61.6197 25.8832 61.2939 25.2547 61.1439 24.5569L64.5519 24.0985C64.6557 24.3638 64.82 24.6117 65.0449 24.8424C65.2698 25.073 65.5668 25.2575 65.9358 25.3959C66.3106 25.5401 66.7662 25.6122 67.3025 25.6122C68.104 25.6122 68.7642 25.4161 69.2832 25.024C69.8079 24.6377 70.0703 23.9889 70.0703 23.0778V20.6473H69.9146C69.7532 21.0164 69.511 21.3652 69.1881 21.6939C68.8651 22.0226 68.45 22.2907 67.9425 22.4983C67.4351 22.7059 66.8296 22.8097 66.1261 22.8097C65.1285 22.8097 64.2203 22.5791 63.4015 22.1177C62.5884 21.6507 61.9397 20.9385 61.4553 19.9813C60.9767 19.0183 60.7374 17.8016 60.7374 16.3312C60.7374 14.8261 60.9825 13.5691 61.4726 12.5599C61.9628 11.5508 62.6144 10.7954 63.4274 10.2938C64.2463 9.79208 65.1429 9.54124 66.1175 9.54124C66.8613 9.54124 67.4841 9.6681 67.9858 9.92182C68.4874 10.1698 68.8911 10.4812 69.1967 10.856C69.5081 11.225 69.7474 11.5883 69.9146 11.9458H70.053V9.71423H73.7118V23.1297C73.7118 24.26 73.435 25.2056 72.8814 25.9668C72.3279 26.728 71.5609 27.2988 70.5806 27.6794C69.6061 28.0658 68.4846 28.2589 67.216 28.2589ZM67.2938 20.0418C67.8877 20.0418 68.3894 19.8948 68.7988 19.6007C69.214 19.3009 69.5312 18.8741 69.7503 18.3206C69.9752 17.7612 70.0876 17.0923 70.0876 16.3139C70.0876 15.5354 69.9781 14.8607 69.7589 14.2899C69.5398 13.7132 69.2227 13.2663 68.8075 12.9492C68.3923 12.632 67.8877 12.4735 67.2938 12.4735C66.6883 12.4735 66.178 12.6378 65.7628 12.9665C65.3476 13.2894 65.0334 13.7392 64.82 14.3158C64.6067 14.8925 64.5 15.5585 64.5 16.3139C64.5 17.0808 64.6067 17.7439 64.82 18.3033C65.0391 18.8568 65.3534 19.2864 65.7628 19.5921C66.178 19.8919 66.6883 20.0418 67.2938 20.0418ZM76.7132 23V5.28564H83.7021C85.0399 5.28564 86.1816 5.52495 87.1273 6.00356C88.0788 6.4764 88.8024 7.14819 89.2984 8.01891C89.8 8.88387 90.0509 9.90164 90.0509 11.0722C90.0509 12.2486 89.7971 13.2606 89.2897 14.1082C88.7823 14.9501 88.047 15.596 87.0841 16.0457C86.1268 16.4955 84.9678 16.7204 83.6069 16.7204H78.9275V13.7103H83.0015C83.7165 13.7103 84.3104 13.6123 84.7833 13.4163C85.2561 13.2202 85.6079 12.9261 85.8385 12.534C86.0749 12.1419 86.1932 11.6546 86.1932 11.0722C86.1932 10.484 86.0749 9.98814 85.8385 9.58449C85.6079 9.18084 85.2532 8.87522 84.7746 8.66763C84.3018 8.45428 83.705 8.3476 82.9842 8.3476H80.4585V23H76.7132ZM86.2796 14.9386L90.6823 23H86.5478L82.2403 14.9386H86.2796ZM98.4172 23.2595C97.0736 23.2595 95.9117 22.9741 94.9314 22.4032C93.9569 21.8265 93.2044 21.025 92.6739 19.9986C92.1433 18.9664 91.8781 17.7699 91.8781 16.409C91.8781 15.0366 92.1433 13.8372 92.6739 12.8108C93.2044 11.7786 93.9569 10.9771 94.9314 10.4062C95.9117 9.82956 97.0736 9.54124 98.4172 9.54124C99.7608 9.54124 100.92 9.82956 101.894 10.4062C102.875 10.9771 103.63 11.7786 104.161 12.8108C104.691 13.8372 104.956 15.0366 104.956 16.409C104.956 17.7699 104.691 18.9664 104.161 19.9986C103.63 21.025 102.875 21.8265 101.894 22.4032C100.92 22.9741 99.7608 23.2595 98.4172 23.2595ZM98.4345 20.4051C99.0457 20.4051 99.556 20.2321 99.9655 19.8861C100.375 19.5344 100.683 19.0558 100.891 18.4503C101.104 17.8448 101.211 17.1558 101.211 16.3831C101.211 15.6104 101.104 14.9213 100.891 14.3158C100.683 13.7103 100.375 13.2317 99.9655 12.88C99.556 12.5282 99.0457 12.3524 98.4345 12.3524C97.8175 12.3524 97.2985 12.5282 96.8776 12.88C96.4624 13.2317 96.1481 13.7103 95.9348 14.3158C95.7272 14.9213 95.6234 15.6104 95.6234 16.3831C95.6234 17.1558 95.7272 17.8448 95.9348 18.4503C96.1481 19.0558 96.4624 19.5344 96.8776 19.8861C97.2985 20.2321 97.8175 20.4051 98.4345 20.4051ZM113.355 23.2595C111.994 23.2595 110.824 22.9712 109.843 22.3945C108.869 21.8121 108.119 21.0048 107.594 19.9726C107.075 18.9405 106.816 17.7526 106.816 16.409C106.816 15.0481 107.078 13.8545 107.603 12.8281C108.134 11.7959 108.886 10.9915 109.861 10.4148C110.835 9.83244 111.994 9.54124 113.338 9.54124C114.497 9.54124 115.512 9.75171 116.382 10.1727C117.253 10.5936 117.942 11.1847 118.45 11.9458C118.957 12.707 119.237 13.6008 119.289 14.6272H115.812C115.713 13.9641 115.454 13.4307 115.033 13.027C114.618 12.6176 114.073 12.4129 113.398 12.4129C112.827 12.4129 112.329 12.5686 111.902 12.88C111.481 13.1856 111.152 13.6325 110.916 14.2207C110.679 14.8088 110.561 15.521 110.561 16.3571C110.561 17.2048 110.677 17.9256 110.907 18.5195C111.144 19.1135 111.475 19.5661 111.902 19.8775C112.329 20.1889 112.827 20.3446 113.398 20.3446C113.819 20.3446 114.197 20.2581 114.531 20.0851C114.872 19.9121 115.151 19.6613 115.37 19.3326C115.595 18.9981 115.742 18.5974 115.812 18.1303H119.289C119.231 19.1452 118.954 20.039 118.458 20.8117C117.968 21.5786 117.291 22.1783 116.426 22.6108C115.561 23.0432 114.537 23.2595 113.355 23.2595ZM124.987 19.1769L124.995 14.7569H125.531L129.787 9.71423H134.017L128.299 16.3917H127.426L124.987 19.1769ZM121.648 23V5.28564H125.333V23H121.648ZM129.951 23L126.042 17.2134L128.498 14.6099L134.268 23H129.951ZM141.332 23.2595C139.965 23.2595 138.789 22.9827 137.803 22.4291C136.823 21.8698 136.067 21.0798 135.537 20.0591C135.006 19.0327 134.741 17.8189 134.741 16.4177C134.741 15.051 135.006 13.8516 135.537 12.8194C136.067 11.7873 136.814 10.9828 137.777 10.4062C138.746 9.82956 139.882 9.54124 141.185 9.54124C142.062 9.54124 142.878 9.68252 143.633 9.96507C144.394 10.2419 145.057 10.6599 145.622 11.2193C146.193 11.7786 146.637 12.4821 146.954 13.3298C147.272 14.1717 147.43 15.1577 147.43 16.2879V17.2999H136.212V15.0164H143.962C143.962 14.4859 143.846 14.016 143.616 13.6065C143.385 13.1971 143.065 12.8771 142.656 12.6464C142.252 12.41 141.782 12.2918 141.246 12.2918C140.686 12.2918 140.19 12.4216 139.758 12.681C139.331 12.9348 138.997 13.2779 138.755 13.7103C138.512 14.1371 138.388 14.6128 138.383 15.1375V17.3086C138.383 17.9659 138.504 18.5339 138.746 19.0125C138.994 19.4912 139.343 19.8602 139.792 20.1197C140.242 20.3792 140.776 20.5089 141.393 20.5089C141.802 20.5089 142.177 20.4513 142.517 20.3359C142.857 20.2206 143.149 20.0476 143.391 19.817C143.633 19.5863 143.817 19.3037 143.944 18.9693L147.352 19.1942C147.179 20.013 146.825 20.728 146.288 21.3393C145.758 21.9448 145.072 22.4176 144.23 22.7578C143.394 23.0923 142.428 23.2595 141.332 23.2595ZM156.901 9.71423V12.4821H148.901V9.71423H156.901ZM150.717 6.53118H154.402V18.9174C154.402 19.2576 154.454 19.5229 154.557 19.7132C154.661 19.8977 154.805 20.0274 154.99 20.1024C155.18 20.1774 155.399 20.2148 155.647 20.2148C155.82 20.2148 155.993 20.2004 156.166 20.1716C156.339 20.137 156.472 20.111 156.564 20.0937L157.144 22.8357C156.959 22.8933 156.7 22.9596 156.365 23.0346C156.031 23.1153 155.624 23.1643 155.146 23.1816C154.257 23.2162 153.479 23.098 152.81 22.827C152.147 22.556 151.631 22.135 151.262 21.5642C150.893 20.9933 150.711 20.2725 150.717 19.4018V6.53118Z" fill="#681DB3"/>
<path d="M162.312 13.2539C160.324 13.8759 159.1 15.6845 159.254 18.0793C159.277 18.4311 159.554 18.7151 159.906 18.7384C161.471 18.8416 162.791 18.3608 163.691 17.4615C164.171 16.981 164.528 16.3777 164.745 15.6841L162.312 13.2539Z" fill="#F9B938"/>
<path d="M164.359 16.5759L163.427 15.6445C162.947 15.1647 162.296 14.8936 161.616 14.8901C160.763 14.886 159.93 15.2981 159.476 16.1058C159.901 14.709 160.919 13.6911 162.314 13.2539L164.747 15.6853C164.647 15.9942 164.518 16.2925 164.359 16.5759Z" fill="#E5A320"/>
<path d="M162.902 13.8438C161.877 14.1643 161.246 15.0969 161.325 16.3322C161.33 16.4201 161.367 16.5031 161.429 16.5657C161.491 16.6283 161.574 16.6663 161.661 16.6724C162.469 16.7252 163.149 16.4775 163.613 16.0137C163.866 15.7569 164.053 15.4422 164.157 15.0969L162.902 13.8438Z" fill="#F7F363"/>
<path d="M163.7 15.9167L163.427 15.6448C162.947 15.165 162.296 14.8939 161.616 14.8904C161.889 14.3879 162.339 14.0207 162.904 13.8438L164.158 15.0969C164.065 15.3998 163.909 15.6795 163.699 15.9171L163.7 15.9167Z" fill="#F7E839"/>
<path d="M162.079 9.73278C161.872 9.72445 161.662 9.72861 161.456 9.74527C160.671 9.79751 159.902 9.99753 159.192 10.3348C158.874 10.4872 158.507 10.4172 158.255 10.1658L158.251 10.1616C158.123 10.0365 158.039 9.8736 158.01 9.69699C157.982 9.52038 158.012 9.33939 158.094 9.18071C158.475 8.40443 158.983 7.69685 159.596 7.08693C160.882 5.80491 162.566 4.99703 164.372 4.79538C164.652 4.7704 164.929 4.75 165.209 4.75C163.869 6.15557 162.8 7.84134 162.079 9.73278ZM168.831 19.909C168.672 19.9906 168.491 20.0193 168.314 19.9911C168.137 19.9629 167.975 19.8791 167.849 19.752L167.841 19.7437C167.719 19.6243 167.638 19.4703 167.607 19.3028C167.577 19.1353 167.599 18.9625 167.671 18.8082C168.009 18.0968 168.208 17.3275 168.257 16.5416C168.278 16.3314 168.282 16.1211 168.274 15.9067C170.142 15.2023 171.833 14.1468 173.256 12.7912C173.252 13.0756 173.24 13.3599 173.203 13.636C173.058 15.0495 172.538 16.418 171.648 17.58C170.881 18.5775 169.932 19.3607 168.831 19.909Z" fill="#681DB3"/>
<path d="M165.209 4.75C163.869 6.15557 162.801 7.84134 162.079 9.73278C161.929 9.72591 161.779 9.7273 161.629 9.73694C161.571 9.73694 161.509 9.7411 161.456 9.74527C161.64 9.23657 161.85 8.73769 162.086 8.2506C162.569 7.25013 161.558 6.20511 160.552 6.67891C160.036 6.92205 159.565 7.19226 159.237 7.47829C159.348 7.34256 159.472 7.21058 159.596 7.08693C160.882 5.80491 162.566 4.99703 164.372 4.79538C164.652 4.7704 164.928 4.75 165.209 4.75ZM170.53 18.7711C170.65 18.6354 170.765 18.4951 170.881 18.3465C171.078 18.0883 171.266 17.7449 171.438 17.366C171.891 16.3668 170.841 15.3734 169.856 15.8584C169.336 16.1144 168.802 16.3423 168.257 16.5412C168.266 16.4838 168.27 16.4221 168.27 16.3643C168.282 16.2119 168.278 16.0595 168.274 15.9067C170.142 15.2023 171.833 14.1468 173.256 12.7912C173.252 13.0756 173.24 13.3599 173.203 13.636C173.058 15.0495 172.538 16.418 171.648 17.58C171.314 18.0119 170.94 18.4107 170.53 18.7711Z" fill="#681DB3"/>
<path d="M173.545 12.5173C171.54 14.5203 168.967 15.9217 166.104 16.5646C165.65 16.6637 165.164 16.5154 164.829 16.1815L161.811 13.1643C161.473 12.8262 161.328 12.3358 161.431 11.8861C163.036 4.7771 169.136 0 176.61 0C177.381 0.00416342 178.004 0.626594 178 1.38892C178.008 5.69181 176.42 9.64455 173.545 12.5169L173.545 12.5173Z" fill="#FC1191"/>
<path d="M173.545 12.5167C171.541 14.5198 168.967 15.9212 166.104 16.564C165.65 16.6631 165.164 16.5149 164.829 16.181L163.964 15.315C164.298 15.6493 164.784 15.7975 165.238 15.6984C168.101 15.0556 170.674 13.6542 172.679 11.6516C175.554 8.77883 177.141 4.82608 177.133 0.52361C177.133 0.36665 177.108 0.218432 177.059 0.078125C177.612 0.267977 178.004 0.782991 178 1.38877C178.008 5.69166 176.42 9.64441 173.545 12.5167Z" fill="#A73B76"/>
<path d="M161.689 10.9336C161.597 11.2488 161.505 11.5631 161.431 11.8878C161.328 12.3371 161.472 12.8275 161.811 13.1656L164.83 16.1824C165.164 16.5163 165.651 16.6645 166.104 16.5654C166.43 16.4915 166.752 16.4074 167.072 16.3131L161.689 10.9336Z" fill="#6C1D9A"/>
<path d="M167.074 16.3149C166.752 16.4057 166.434 16.4923 166.104 16.5664C165.65 16.6655 165.164 16.5173 164.829 16.1834L163.935 15.2891C164.269 15.6226 164.756 15.7712 165.209 15.6721C165.534 15.597 165.858 15.5132 166.179 15.4206L167.074 16.3149Z" fill="#571E78"/>
<path d="M177.299 6.20973C177.77 4.64626 178.006 3.02164 178 1.38892C178.004 0.62701 177.381 0.00416342 176.61 0C174.922 0 173.311 0.255634 171.799 0.714442L177.299 6.20973Z" fill="#6C1D9A"/>
<path d="M177.298 6.20991L176.457 5.36931C176.928 3.80569 177.164 2.18072 177.158 0.54766C177.158 0.382789 177.129 0.230408 177.075 0.0859375C177.346 0.179435 177.581 0.355237 177.746 0.588705C177.912 0.822173 178.001 1.1016 177.999 1.38784C178.004 3.06569 177.76 4.68485 177.298 6.20991Z" fill="#571E78"/>
<path d="M173.45 9.54359C172.075 10.9167 169.846 10.9167 168.468 9.53901C167.808 8.87936 167.437 7.98487 167.437 7.0522C167.437 6.11953 167.808 5.22504 168.468 4.56539C169.847 3.1873 172.076 3.1873 173.45 4.56081C173.777 4.88777 174.037 5.27611 174.215 5.70362C174.392 6.13112 174.484 6.58939 174.484 7.0522C174.484 7.51501 174.392 7.97328 174.215 8.40078C174.037 8.82828 173.777 9.21663 173.45 9.54359Z" fill="#474646"/>
<path opacity="0.3" d="M169.228 4.88456C169.213 4.86962 169.202 4.85161 169.195 4.83177C169.187 4.81193 169.184 4.79074 169.186 4.76967C169.188 4.74859 169.194 4.72814 169.204 4.70973C169.215 4.69132 169.229 4.6754 169.246 4.66306C169.603 4.40511 170.013 4.23056 170.447 4.1523C170.88 4.07403 171.325 4.09407 171.75 4.21092C171.768 4.21595 171.786 4.22456 171.801 4.23627C171.816 4.24798 171.829 4.26255 171.838 4.27916C171.848 4.29576 171.854 4.31407 171.856 4.33305C171.859 4.35202 171.857 4.37128 171.852 4.38973C171.847 4.40819 171.839 4.42547 171.827 4.44059C171.815 4.45572 171.801 4.46838 171.784 4.47788C171.767 4.48737 171.749 4.49349 171.73 4.49591C171.711 4.49832 171.692 4.49698 171.673 4.49195C171.291 4.38673 170.889 4.36873 170.498 4.43928C170.108 4.50983 169.738 4.66712 169.416 4.89954C169.388 4.91967 169.354 4.92921 169.32 4.92647C169.285 4.92372 169.253 4.90887 169.228 4.88456ZM172.441 4.84001C172.415 4.8144 172.399 4.77981 172.397 4.74315C172.395 4.70649 172.407 4.67047 172.431 4.64227C172.454 4.61408 172.488 4.5958 172.524 4.59109C172.561 4.58638 172.598 4.59558 172.627 4.61685C172.777 4.71969 172.917 4.83668 173.044 4.96366C173.101 5.02028 173.102 5.11438 173.046 5.171C173.03 5.18581 173.011 5.19703 172.991 5.20388C172.97 5.21073 172.948 5.21304 172.927 5.21067C172.905 5.20829 172.885 5.20128 172.866 5.19012C172.848 5.17896 172.832 5.16391 172.82 5.14602C172.708 5.04065 172.588 4.94405 172.462 4.85708C172.454 4.85204 172.447 4.84633 172.441 4.84001Z" fill="white"/>
<path d="M173.446 9.5431C172.072 10.9154 169.845 10.9154 168.468 9.53894C168.107 9.18014 167.83 8.74712 167.655 8.27014C167.48 7.79316 167.411 7.2837 167.453 6.77734C167.471 7.67404 167.838 8.52846 168.476 9.15923C168.803 9.48726 169.191 9.74762 169.619 9.92541C170.046 10.1032 170.505 10.1949 170.968 10.1953C171.432 10.1957 171.89 10.1047 172.318 9.92766C172.746 9.75059 173.135 9.49088 173.462 9.1634C174.041 8.58649 174.4 7.82553 174.477 7.01216C174.485 7.48167 174.398 7.94793 174.22 8.38283C174.043 8.81773 173.78 9.21269 173.446 9.5431Z" fill="#2D2C2C"/>
<path d="M172.403 8.4913C172.213 8.68116 171.988 8.8318 171.74 8.93458C171.493 9.03737 171.227 9.09028 170.959 9.09028C170.691 9.09028 170.425 9.03737 170.177 8.93458C169.929 8.8318 169.704 8.68116 169.515 8.4913C169.33 8.30807 169.184 8.08943 169.086 7.84847C169.008 7.67902 168.958 7.49807 168.938 7.31264C168.909 7.11862 168.917 6.92127 168.95 6.73142C169.016 6.31924 169.206 5.92372 169.519 5.61021C170.315 4.815 171.607 4.81084 172.403 5.60605C172.489 5.69265 172.568 5.78758 172.633 5.88666C172.749 6.04321 172.835 6.22015 172.893 6.40168C172.955 6.57904 172.992 6.76431 172.996 6.94959C173.014 7.28369 172.948 7.61696 172.803 7.91841C172.708 8.12866 172.572 8.32226 172.403 8.4913Z" fill="#A2A2F9"/>
<path opacity="0.3" d="M172.893 6.40215L168.938 7.31311C168.909 7.11909 168.917 6.92174 168.95 6.73189L172.633 5.88672C172.749 6.04368 172.835 6.22063 172.893 6.40215ZM172.803 7.91888L169.676 8.63582C169.62 8.58999 169.567 8.54193 169.515 8.49177C169.33 8.30854 169.184 8.0899 169.086 7.84894L172.996 6.95006C173.014 7.28416 172.948 7.61743 172.803 7.91888Z" fill="white"/>
<path d="M172.939 7.52663C172.939 7.26282 172.886 7.00168 172.784 6.75834C172.682 6.51499 172.533 6.29429 172.345 6.10899C171.549 5.31378 170.258 5.31794 169.461 6.11315C169.196 6.37836 169.011 6.71235 168.926 7.0774C168.921 6.80557 168.971 6.53561 169.073 6.28356C169.175 6.03151 169.327 5.80253 169.519 5.61021C170.315 4.815 171.607 4.81084 172.403 5.60605C172.651 5.85204 172.831 6.15852 172.926 6.49531C173.02 6.83209 173.024 7.18754 172.939 7.52663Z" fill="#5E5EEF"/>
</svg>
